<svg xmlns="http://www.w3.org/2000/svg" viewBox="0 0 100 100">
  <defs>
    <linearGradient id="grad" x1="0%" y1="0%" x2="100%" y2="100%">
      <stop offset="0%" style="stop-color:#10b981;stop-opacity:1" />
      <stop offset="100%" style="stop-color:#059669;stop-opacity:1" />
    </linearGradient>
  </defs>
  
  <!-- Background circle -->
  <circle cx="50" cy="50" r="48" fill="url(#grad)"/>
  
  <!-- Heart shape representing charity -->
  <path d="M50 72 C32 58, 24 48, 24 38 C24 30, 30 25, 37 25 C43 25, 47 28, 50 33 C53 28, 57 25, 63 25 C70 25, 76 30, 76 38 C76 48, 68 58, 50 72 Z" 
        fill="white"/>
  
  <!-- Hands holding/supporting (simplified) -->
  <path d="M35 50 L35 58 L40 58 L40 50 Z" fill="white" opacity="0.8"/>
  <path d="M60 50 L60 58 L65 58 L65 50 Z" fill="white" opacity="0.8"/>
</svg>
